<svg width="212" height="62" viewBox="0 0 212 62" fill="none" xmlns="http://www.w3.org/2000/svg">
<g filter="url(#filter0_d_204_399)">
<circle cx="31" cy="27" r="17" fill="white"/>
</g>
<g clip-path="url(#clip0_204_399)">
<path d="M32.9983 22.9925H34.0938V21.0845C33.9048 21.0585 33.2548 21 32.4978 21C30.9183 21 29.8363 21.9935 29.8363 23.8195V25.5H28.0933V27.633H29.8363V33H31.9733V27.6335H33.6458L33.9113 25.5005H31.9728V24.031C31.9733 23.4145 32.1393 22.9925 32.9983 22.9925Z" fill="black"/>
</g>
<g filter="url(#filter1_d_204_399)">
<circle cx="81" cy="27" r="17" fill="white"/>
</g>
<g clip-path="url(#clip1_204_399)">
<path d="M84.481 20H78.519C76.5786 20 75 21.5786 75 23.519V29.4811C75 31.4214 76.5786 33 78.519 33H84.4811C86.4214 33 88 31.4214 88 29.4811V23.519C88 21.5786 86.4214 20 84.481 20V20ZM87.2379 29.4811C87.2379 31.0012 86.0012 32.2379 84.481 32.2379H78.519C76.9988 32.2379 75.7621 31.0012 75.7621 29.4811V23.519C75.7621 21.9988 76.9988 20.7621 78.519 20.7621H84.4811C86.0012 20.7621 87.2379 21.9988 87.2379 23.519V29.4811Z" fill="black"/>
<path d="M81.4999 22.9453C79.5399 22.9453 77.9453 24.5399 77.9453 26.4999C77.9453 28.4599 79.5399 30.0545 81.4999 30.0545C83.4599 30.0545 85.0545 28.4599 85.0545 26.4999C85.0545 24.5399 83.4599 22.9453 81.4999 22.9453ZM81.4999 29.2924C79.9602 29.2924 78.7074 28.0397 78.7074 26.4999C78.7074 24.9602 79.9602 23.7074 81.4999 23.7074C83.0397 23.7074 84.2924 24.9602 84.2924 26.4999C84.2924 28.0397 83.0397 29.2924 81.4999 29.2924Z" fill="black"/>
<path d="M85.1397 21.6831C84.5605 21.6831 84.0894 22.1543 84.0894 22.7334C84.0894 23.3127 84.5605 23.7839 85.1397 23.7839C85.7189 23.7839 86.1901 23.3127 86.1901 22.7334C86.1901 22.1542 85.7189 21.6831 85.1397 21.6831ZM85.1397 23.0217C84.9808 23.0217 84.8515 22.8923 84.8515 22.7334C84.8515 22.5745 84.9808 22.4452 85.1397 22.4452C85.2987 22.4452 85.428 22.5745 85.428 22.7334C85.428 22.8923 85.2987 23.0217 85.1397 23.0217Z" fill="black"/>
</g>
<g filter="url(#filter2_d_204_399)">
<circle cx="131" cy="27" r="17" fill="white"/>
</g>
<g clip-path="url(#clip2_204_399)">
<path d="M137 23.4692C136.517 23.6812 136.001 23.8218 135.464 23.8901C136.017 23.5602 136.439 23.0418 136.637 22.417C136.122 22.7241 135.553 22.9411 134.947 23.0621C134.458 22.5413 133.761 22.2188 133 22.2188C131.525 22.2188 130.337 23.4164 130.337 24.8846C130.337 25.0958 130.355 25.2989 130.398 25.4923C128.183 25.3842 126.222 24.3223 124.905 22.7046C124.675 23.1036 124.54 23.5602 124.54 24.0518C124.54 24.9748 125.016 25.7929 125.724 26.2666C125.296 26.2585 124.876 26.1342 124.52 25.9384C124.52 25.9465 124.52 25.9571 124.52 25.9676C124.52 27.2627 125.444 28.3385 126.655 28.5863C126.438 28.6456 126.202 28.6741 125.957 28.6741C125.786 28.6741 125.614 28.6643 125.452 28.6286C125.797 29.684 126.777 30.4599 127.942 30.4851C127.036 31.1944 125.884 31.6218 124.638 31.6218C124.419 31.6218 124.21 31.6121 124 31.5852C125.181 32.3466 126.58 32.7812 128.089 32.7812C132.993 32.7812 135.674 28.7188 135.674 25.1974C135.674 25.0796 135.67 24.9658 135.664 24.8529C136.193 24.4775 136.638 24.0087 137 23.4692Z" fill="black"/>
</g>
<g filter="url(#filter3_d_204_399)">
<circle cx="181" cy="27" r="17" fill="white"/>
</g>
<g clip-path="url(#clip3_204_399)">
<path d="M185.997 32V31.9996H186V27.9653C186 25.9917 185.575 24.4714 183.268 24.4714C182.159 24.4714 181.414 25.0801 181.11 25.6571H181.078V24.6557H178.891V31.9996H181.169V28.3631C181.169 27.4057 181.35 26.4799 182.536 26.4799C183.704 26.4799 183.721 27.5725 183.721 28.4246V32H185.997Z" fill="black"/>
<path d="M175.182 24.656H177.462V31.9999H175.182V24.656Z" fill="black"/>
<path d="M176.321 21C175.592 21 175 21.5917 175 22.3209C175 23.0501 175.592 23.6542 176.321 23.6542C177.05 23.6542 177.642 23.0501 177.642 22.3209C177.641 21.5917 177.05 21 176.321 21V21Z" fill="black"/>
</g>
<defs>
<filter id="filter0_d_204_399" x="0" y="0" width="62" height="62" filterUnits="userSpaceOnUse" color-interpolation-filters="sRGB">
<feFlood flood-opacity="0" result="BackgroundImageFix"/>
<feColorMatrix in="SourceAlpha" type="matrix" values="0 0 0 0 0 0 0 0 0 0 0 0 0 0 0 0 0 0 127 0" result="hardAlpha"/>
<feOffset dy="4"/>
<feGaussianBlur stdDeviation="7"/>
<feColorMatrix type="matrix" values="0 0 0 0 0 0 0 0 0 0 0 0 0 0 0 0 0 0 0.15 0"/>
<feBlend mode="normal" in2="BackgroundImageFix" result="effect1_dropShadow_204_399"/>
<feBlend mode="normal" in="SourceGraphic" in2="effect1_dropShadow_204_399" result="shape"/>
</filter>
<filter id="filter1_d_204_399" x="50" y="0" width="62" height="62" filterUnits="userSpaceOnUse" color-interpolation-filters="sRGB">
<feFlood flood-opacity="0" result="BackgroundImageFix"/>
<feColorMatrix in="SourceAlpha" type="matrix" values="0 0 0 0 0 0 0 0 0 0 0 0 0 0 0 0 0 0 127 0" result="hardAlpha"/>
<feOffset dy="4"/>
<feGaussianBlur stdDeviation="7"/>
<feColorMatrix type="matrix" values="0 0 0 0 0 0 0 0 0 0 0 0 0 0 0 0 0 0 0.15 0"/>
<feBlend mode="normal" in2="BackgroundImageFix" result="effect1_dropShadow_204_399"/>
<feBlend mode="normal" in="SourceGraphic" in2="effect1_dropShadow_204_399" result="shape"/>
</filter>
<filter id="filter2_d_204_399" x="100" y="0" width="62" height="62" filterUnits="userSpaceOnUse" color-interpolation-filters="sRGB">
<feFlood flood-opacity="0" result="BackgroundImageFix"/>
<feColorMatrix in="SourceAlpha" type="matrix" values="0 0 0 0 0 0 0 0 0 0 0 0 0 0 0 0 0 0 127 0" result="hardAlpha"/>
<feOffset dy="4"/>
<feGaussianBlur stdDeviation="7"/>
<feColorMatrix type="matrix" values="0 0 0 0 0 0 0 0 0 0 0 0 0 0 0 0 0 0 0.15 0"/>
<feBlend mode="normal" in2="BackgroundImageFix" result="effect1_dropShadow_204_399"/>
<feBlend mode="normal" in="SourceGraphic" in2="effect1_dropShadow_204_399" result="shape"/>
</filter>
<filter id="filter3_d_204_399" x="150" y="0" width="62" height="62" filterUnits="userSpaceOnUse" color-interpolation-filters="sRGB">
<feFlood flood-opacity="0" result="BackgroundImageFix"/>
<feColorMatrix in="SourceAlpha" type="matrix" values="0 0 0 0 0 0 0 0 0 0 0 0 0 0 0 0 0 0 127 0" result="hardAlpha"/>
<feOffset dy="4"/>
<feGaussianBlur stdDeviation="7"/>
<feColorMatrix type="matrix" values="0 0 0 0 0 0 0 0 0 0 0 0 0 0 0 0 0 0 0.15 0"/>
<feBlend mode="normal" in2="BackgroundImageFix" result="effect1_dropShadow_204_399"/>
<feBlend mode="normal" in="SourceGraphic" in2="effect1_dropShadow_204_399" result="shape"/>
</filter>
<clipPath id="clip0_204_399">
<rect width="12" height="12" fill="white" transform="translate(25 21)"/>
</clipPath>
<clipPath id="clip1_204_399">
<rect width="13" height="13" fill="white" transform="translate(75 20)"/>
</clipPath>
<clipPath id="clip2_204_399">
<rect width="13" height="13" fill="white" transform="translate(124 21)"/>
</clipPath>
<clipPath id="clip3_204_399">
<rect width="11" height="11" fill="white" transform="translate(175 21)"/>
</clipPath>
</defs>
</svg>
