<svg width="65" height="65" viewBox="0 0 65 65" fill="none" xmlns="http://www.w3.org/2000/svg">
<circle cx="32.5" cy="32.5" r="32.5" fill="#DC7000" fill-opacity="0.09"/>
<g clip-path="url(#clip0_204_179)">
<path d="M38.7441 17.6271H26.2559C25.0521 17.6271 24.072 18.6072 24.072 19.8109V45.1885C24.072 46.3927 25.0521 47.3728 26.2559 47.3728H38.7436C39.9478 47.3728 40.928 46.3927 40.928 45.189V19.8109C40.928 18.6072 39.9478 17.6271 38.7441 17.6271ZM25.0635 21.5932H39.9364V40.4322H25.0635V21.5932ZM26.2559 18.6186H38.7436C39.4015 18.6186 39.9364 19.1535 39.9364 19.8109V20.6017H25.0635V19.8109C25.0635 19.1535 25.5985 18.6186 26.2559 18.6186ZM38.7441 46.3813H26.2559C25.5985 46.3813 25.0635 45.8464 25.0635 45.189V41.4237H39.9364V45.189C39.9364 45.8464 39.4015 46.3813 38.7441 46.3813Z" fill="#DC7000"/>
<path d="M32.5001 41.9194C31.4065 41.9194 30.5171 42.8088 30.5171 43.9025C30.5171 44.9961 31.4065 45.8855 32.5001 45.8855C33.5938 45.8855 34.4832 44.9961 34.4832 43.9025C34.4832 42.8088 33.5938 41.9194 32.5001 41.9194ZM32.5001 44.894C31.9533 44.894 31.5086 44.4493 31.5086 43.9025C31.5086 43.3557 31.9533 42.911 32.5001 42.911C33.047 42.911 33.4917 43.3557 33.4917 43.9025C33.4917 44.4493 33.047 44.894 32.5001 44.894Z" fill="#DC7000"/>
<path d="M30.517 20.1059H32.5001C32.7742 20.1059 32.9958 19.8843 32.9958 19.6101C32.9958 19.336 32.7742 19.1144 32.5001 19.1144H30.517C30.2428 19.1144 30.0212 19.336 30.0212 19.6101C30.0212 19.8843 30.2428 20.1059 30.517 20.1059Z" fill="#DC7000"/>
<path d="M33.9875 20.1059H34.4832C34.7574 20.1059 34.979 19.8843 34.979 19.6101C34.979 19.336 34.7574 19.1144 34.4832 19.1144H33.9875C33.7133 19.1144 33.4917 19.336 33.4917 19.6101C33.4917 19.8843 33.7133 20.1059 33.9875 20.1059Z" fill="#DC7000"/>
<path d="M45.6933 19.8922C45.4995 19.6984 45.1861 19.6984 44.9923 19.8922C44.7985 20.0861 44.7985 20.3994 44.9923 20.5932C46.8445 22.4454 46.8445 25.4591 44.9923 27.3118C44.7985 27.5056 44.7985 27.819 44.9923 28.0128C45.089 28.1095 45.2159 28.1581 45.3428 28.1581C45.4697 28.1581 45.5966 28.1095 45.6933 28.0128C47.9322 25.7744 47.9322 22.1311 45.6933 19.8922Z" fill="#DC7000"/>
<path d="M43.6057 21.0205C43.4118 20.8267 43.0985 20.8267 42.9047 21.0205C42.7108 21.2143 42.7108 21.5277 42.9047 21.7215C43.5179 22.3348 43.8555 23.1518 43.8555 24.0214C43.8555 24.8909 43.5179 25.7074 42.9047 26.3207C42.7108 26.5145 42.7108 26.8279 42.9047 27.0217C43.0013 27.1184 43.1282 27.167 43.2552 27.167C43.3821 27.167 43.509 27.1184 43.6057 27.0217C44.4063 26.2216 44.8471 25.1557 44.8471 24.0214C44.8471 22.8871 44.4068 21.8207 43.6057 21.0205Z" fill="#DC7000"/>
<path d="M20.0078 20.5932C20.2017 20.3994 20.2017 20.0861 20.0078 19.8922C19.814 19.6984 19.5007 19.6984 19.3068 19.8922C17.068 22.1311 17.068 25.7739 19.3068 28.0128C19.4035 28.1095 19.5304 28.1581 19.6573 28.1581C19.7843 28.1581 19.9112 28.1095 20.0078 28.0128C20.2017 27.819 20.2017 27.5056 20.0078 27.3118C18.1552 25.4596 18.1552 22.4459 20.0078 20.5932Z" fill="#DC7000"/>
<path d="M22.0955 20.8838C21.9016 20.6899 21.5883 20.6899 21.3945 20.8838C20.5938 21.6839 20.1531 22.7498 20.1531 23.8841C20.1531 25.0184 20.5938 26.0843 21.3945 26.885C21.4911 26.9817 21.6181 27.0303 21.745 27.0303C21.8719 27.0303 21.9988 26.9817 22.0955 26.885C22.2893 26.6912 22.2893 26.3778 22.0955 26.184C21.4822 25.5707 21.1446 24.7537 21.1446 23.8841C21.1446 23.0146 21.4817 22.1981 22.0955 21.5848C22.2888 21.3914 22.2888 21.0776 22.0955 20.8838Z" fill="#DC7000"/>
</g>
<defs>
<clipPath id="clip0_204_179">
<rect width="29.7458" height="29.7458" fill="white" transform="translate(17.6272 17.6271)"/>
</clipPath>
</defs>
</svg>
