<svg width="65" height="65" viewBox="0 0 65 65" fill="none" xmlns="http://www.w3.org/2000/svg">
<circle cx="32.5" cy="32.5" r="32.5" fill="#DC7000" fill-opacity="0.09"/>
<g clip-path="url(#clip0_204_221)">
<path d="M21.4055 27.2411H13.2202V29.565H21.4055C22.0462 29.565 22.5674 30.0862 22.5674 30.7269C22.5674 31.3676 22.0462 31.8889 21.4055 31.8889H16.706C14.784 31.8889 13.2202 33.4526 13.2202 35.3747V38.8605H15.5441V35.3747C15.5441 34.734 16.0654 34.2128 16.706 34.2128H21.4055C23.3276 34.2128 24.8913 32.649 24.8913 30.7269C24.8913 28.8048 23.3276 27.2411 21.4055 27.2411Z" fill="#DC7000"/>
<path d="M33.6318 27.2411C31.7097 27.2411 30.146 28.8048 30.146 30.7269V35.3747C30.146 36.0154 29.6247 36.5366 28.984 36.5366H23.7295V38.8605H28.984C30.9061 38.8605 32.4699 37.2968 32.4699 35.3747V30.7269C32.4699 30.0862 32.9911 29.565 33.6318 29.565H38.8864V27.2411H33.6318Z" fill="#DC7000"/>
<path d="M50.5575 34.2126V29.565C50.5575 28.2836 49.515 27.2411 48.2336 27.2411C47.7935 27.2411 47.3647 27.365 46.9935 27.5994L39.6346 32.2472C38.9559 32.6758 38.5508 33.4105 38.5508 34.2128C38.5508 35.4941 39.5933 36.5366 40.8747 36.5366H48.2336V38.8605H50.5575V36.5366H52.8814V34.2128L50.5575 34.2126ZM48.2336 34.2125L40.8755 34.2121L48.2336 29.565V34.2125Z" fill="#DC7000"/>
</g>
<defs>
<clipPath id="clip0_204_221">
<rect width="39.661" height="39.661" fill="white" transform="translate(13.2202 13.2203)"/>
</clipPath>
</defs>
</svg>
