<svg width="65" height="65" viewBox="0 0 65 65" fill="none" xmlns="http://www.w3.org/2000/svg">
<circle cx="32.5" cy="32.5" r="32.5" fill="#DC7000" fill-opacity="0.09"/>
<g clip-path="url(#clip0_204_254)">
<path d="M45.7203 18.1779H20.3813C18.2528 18.1803 16.5278 19.9052 16.5254 22.0338V44.0677C16.5278 46.1963 18.2528 47.9212 20.3813 47.9236H45.7203C47.8489 47.9212 49.5738 46.1963 49.5762 44.0677V22.0338C49.5738 19.9052 47.8489 18.1803 45.7203 18.1779ZM48.4745 44.0677C48.4727 45.5881 47.2407 46.8201 45.7203 46.8219H20.3813C18.861 46.8201 17.6289 45.5881 17.6271 44.0677V22.0338C17.6289 20.5134 18.861 19.2814 20.3813 19.2796H45.7203C47.2407 19.2814 48.4727 20.5134 48.4745 22.0338V44.0677Z" fill="#DC7000"/>
<path d="M45.7203 22.5846H20.3813C19.4686 22.5846 18.7288 23.3245 18.7288 24.2371V44.0676C18.7288 44.9803 19.4686 45.7202 20.3813 45.7202H45.7203C46.633 45.7202 47.3728 44.9803 47.3728 44.0676V24.2371C47.3728 23.3245 46.633 22.5846 45.7203 22.5846ZM33.0508 33.5266L27.0515 30.2965L33.0508 27.0663L39.0501 30.2965L33.0508 33.5266ZM39.661 31.2186V37.6778L33.6016 40.9421V34.4829L39.661 31.2186ZM32.4999 34.4829V40.9421L26.4406 37.6778V31.2186L32.4999 34.4829ZM19.8305 24.2371C19.8305 23.9329 20.0771 23.6863 20.3813 23.6863H32.4999V26.11L25.6287 29.8117C25.6215 29.8156 25.6133 29.8172 25.6061 29.8216C25.4395 29.9217 25.338 30.1021 25.3389 30.2965V34.9137L19.8305 37.6679V24.2371ZM46.2711 44.0676C46.2711 44.3719 46.0245 44.6185 45.7203 44.6185H20.3813C20.0771 44.6185 19.8305 44.3719 19.8305 44.0676V38.8996L25.3389 36.1454V38.0083C25.339 38.2109 25.4503 38.3971 25.6287 38.4931L32.7897 42.349C32.9527 42.4368 33.1489 42.4368 33.3119 42.349L40.4729 38.4931C40.6513 38.3971 40.7626 38.2109 40.7627 38.0083V36.1454L46.2711 38.8996V44.0676ZM46.2711 37.6679L40.7627 34.9137V30.2965C40.7626 30.1027 40.6607 29.9232 40.4944 29.8238C40.4872 29.8194 40.479 29.8178 40.4718 29.8139L33.6016 26.11V23.6863H45.7203C46.0245 23.6863 46.2711 23.9329 46.2711 24.2371V37.6679Z" fill="#DC7000"/>
<path d="M19.8304 21.4829C20.1346 21.4829 20.3812 21.2363 20.3812 20.9321C20.3812 20.6278 20.1346 20.3812 19.8304 20.3812C19.5262 20.3812 19.2795 20.6278 19.2795 20.9321C19.2795 21.2363 19.5262 21.4829 19.8304 21.4829Z" fill="#DC7000"/>
<path d="M22.0338 21.4829C22.338 21.4829 22.5846 21.2363 22.5846 20.9321C22.5846 20.6278 22.338 20.3812 22.0338 20.3812C21.7295 20.3812 21.4829 20.6278 21.4829 20.9321C21.4829 21.2363 21.7295 21.4829 22.0338 21.4829Z" fill="#DC7000"/>
<path d="M24.2371 21.4829C24.5413 21.4829 24.788 21.2363 24.788 20.9321C24.788 20.6278 24.5413 20.3812 24.2371 20.3812C23.9329 20.3812 23.6863 20.6278 23.6863 20.9321C23.6863 21.2363 23.9329 21.4829 24.2371 21.4829Z" fill="#DC7000"/>
<path d="M38.0084 21.4829H45.7202C46.0245 21.4829 46.2711 21.2363 46.2711 20.9321C46.2711 20.6278 46.0245 20.3812 45.7202 20.3812H38.0084C37.7041 20.3812 37.4575 20.6278 37.4575 20.9321C37.4575 21.2363 37.7041 21.4829 38.0084 21.4829Z" fill="#DC7000"/>
</g>
<defs>
<clipPath id="clip0_204_254">
<rect width="33.0508" height="33.0508" fill="white" transform="translate(16.5254 16.5254)"/>
</clipPath>
</defs>
</svg>
