<svg width="65" height="65" viewBox="0 0 65 65" fill="none" xmlns="http://www.w3.org/2000/svg">
<circle cx="32.5" cy="32.5" r="32.5" fill="#DC7000" fill-opacity="0.09"/>
<g clip-path="url(#clip0_204_240)">
<path d="M34.5671 40.9054C32.8811 41.468 31.0213 41.4679 29.3305 40.9052C28.8567 40.7474 28.3452 41.0037 28.1876 41.4772C28.03 41.9508 28.2861 42.4626 28.7597 42.6202C29.7894 42.9629 30.8703 43.1341 31.9509 43.1341C33.0316 43.1341 34.1119 42.9627 35.1392 42.6199C35.6126 42.462 35.8684 41.9501 35.7103 41.4766C35.5524 41.0032 35.0406 40.7476 34.5671 40.9054Z" fill="#DC7000"/>
<path d="M42.4768 23.5314C42.0921 20.7726 39.7232 18.5951 36.7892 18.5951H35.7568V18.5308C35.7568 18.0317 35.3522 17.6271 34.8531 17.6271H29.0451C28.546 17.6271 28.1414 18.0317 28.1414 18.5308V18.595H27.1091C24.1997 18.595 21.8275 20.7422 21.424 23.5307C19.73 23.9163 18.4614 25.4337 18.4614 27.2427V34.9868C18.4614 37.4634 20.4787 38.4727 21.3951 38.6905C21.8089 44.2659 26.4904 48.4745 31.9491 48.4745C37.5159 48.4745 42.0925 44.1544 42.5027 38.6908C44.878 38.1268 45.4368 35.9719 45.4368 34.9868V27.2428C45.4369 25.4346 44.1695 23.9178 42.4768 23.5314ZM35.7568 20.4025H36.7891C39.3462 20.4025 40.4025 22.4932 40.6221 23.4351H35.7568V20.4025ZM29.9489 19.4345H33.9494V23.4351H29.9489V19.4345ZM27.1091 20.4025H28.1414V23.4351H23.2798C23.866 20.9796 26.0905 20.4025 27.1091 20.4025ZM31.9491 46.6671C27.4886 46.6671 23.6757 43.2879 23.2188 38.7945H27.6754C28.7844 38.7945 29.8695 38.3451 30.6524 37.5616C30.6571 37.5569 30.6617 37.5522 30.6662 37.5475C31.0062 37.2149 31.4727 37.0246 31.9491 37.0246C32.4257 37.0246 32.8921 37.215 33.2321 37.5475C33.2366 37.5522 33.2412 37.5569 33.2459 37.5616C34.0288 38.3451 35.1139 38.7945 36.2229 38.7945H40.6791C40.2253 43.2108 36.4833 46.6671 31.9491 46.6671ZM43.6294 34.9868C43.6294 36.1053 42.7178 36.987 41.6291 36.987H36.2229C35.5968 36.987 34.9843 36.7364 34.5391 36.2985C34.5342 36.2934 34.5293 36.2883 34.5243 36.2833C33.8467 35.6057 32.9082 35.2171 31.9492 35.2171C30.9903 35.2171 30.0517 35.6057 29.3741 36.2833C29.3691 36.2883 29.3641 36.2933 29.3593 36.2985C28.914 36.7364 28.3015 36.987 27.6754 36.987H22.2691C21.1839 36.987 20.2688 36.1091 20.2688 34.9868V27.2428C20.2688 26.1399 21.1662 25.2426 22.2691 25.2426H41.6291C42.732 25.2426 43.6293 26.1399 43.6293 27.2428V34.9868H43.6294Z" fill="#DC7000"/>
</g>
<defs>
<clipPath id="clip0_204_240">
<rect width="30.8475" height="30.8475" fill="white" transform="translate(16.5254 17.6271)"/>
</clipPath>
</defs>
</svg>
