<svg width="31" height="31" viewBox="0 0 31 31" fill="none" xmlns="http://www.w3.org/2000/svg">
<g clip-path="url(#clip0_204_181)">
<path d="M21.7441 0.627075H9.25586C8.05214 0.627075 7.07202 1.6072 7.07202 2.81091V28.1885C7.07202 29.3927 8.05214 30.3728 9.25586 30.3728H21.7436C22.9478 30.3728 23.928 29.3927 23.928 28.189V2.81091C23.928 1.6072 22.9478 0.627075 21.7441 0.627075ZM8.06355 4.59318H22.9364V23.4322H8.06355V4.59318ZM9.25586 1.6186H21.7436C22.4015 1.6186 22.9364 2.15353 22.9364 2.81091V3.60165H8.06355V2.81091C8.06355 2.15353 8.59848 1.6186 9.25586 1.6186ZM21.7441 29.3813H9.25586C8.59848 29.3813 8.06355 28.8464 8.06355 28.189V24.4237H22.9364V28.189C22.9364 28.8464 22.4015 29.3813 21.7441 29.3813Z" fill="#DC7000"/>
<path d="M15.5001 24.9194C14.4065 24.9194 13.5171 25.8088 13.5171 26.9025C13.5171 27.9961 14.4065 28.8855 15.5001 28.8855C16.5938 28.8855 17.4832 27.9961 17.4832 26.9025C17.4832 25.8088 16.5938 24.9194 15.5001 24.9194ZM15.5001 27.894C14.9533 27.894 14.5086 27.4493 14.5086 26.9025C14.5086 26.3557 14.9533 25.911 15.5001 25.911C16.047 25.911 16.4917 26.3557 16.4917 26.9025C16.4917 27.4493 16.047 27.894 15.5001 27.894Z" fill="#DC7000"/>
<path d="M13.517 3.10591H15.5001C15.7742 3.10591 15.9958 2.8843 15.9958 2.61014C15.9958 2.33599 15.7742 2.11438 15.5001 2.11438H13.517C13.2428 2.11438 13.0212 2.33599 13.0212 2.61014C13.0212 2.8843 13.2428 3.10591 13.517 3.10591Z" fill="#DC7000"/>
<path d="M16.9875 3.10591H17.4832C17.7574 3.10591 17.979 2.8843 17.979 2.61014C17.979 2.33599 17.7574 2.11438 17.4832 2.11438H16.9875C16.7133 2.11438 16.4917 2.33599 16.4917 2.61014C16.4917 2.8843 16.7133 3.10591 16.9875 3.10591Z" fill="#DC7000"/>
<path d="M28.6933 2.89221C28.4995 2.69837 28.1861 2.69837 27.9923 2.89221C27.7985 3.08605 27.7985 3.39937 27.9923 3.59322C29.8445 5.44539 29.8445 8.45913 27.9923 10.3118C27.7985 10.5056 27.7985 10.819 27.9923 11.0128C28.089 11.1095 28.2159 11.1581 28.3428 11.1581C28.4697 11.1581 28.5966 11.1095 28.6933 11.0128C30.9322 8.77443 30.9322 5.13107 28.6933 2.89221Z" fill="#DC7000"/>
<path d="M26.6057 4.0205C26.4118 3.82666 26.0985 3.82666 25.9047 4.0205C25.7108 4.21435 25.7108 4.52767 25.9047 4.72151C26.5179 5.33477 26.8555 6.15179 26.8555 7.02136C26.8555 7.89092 26.5179 8.70744 25.9047 9.3207C25.7108 9.51455 25.7108 9.82787 25.9047 10.0217C26.0013 10.1184 26.1282 10.167 26.2552 10.167C26.3821 10.167 26.509 10.1184 26.6057 10.0217C27.4063 9.22155 27.8471 8.15566 27.8471 7.02136C27.8471 5.88705 27.4068 4.82067 26.6057 4.0205Z" fill="#DC7000"/>
<path d="M3.00784 3.59322C3.20169 3.39937 3.20169 3.08605 3.00784 2.89221C2.814 2.69837 2.50068 2.69837 2.30683 2.89221C0.0679694 5.13107 0.0679694 8.77394 2.30683 11.0128C2.40351 11.1095 2.53042 11.1581 2.65734 11.1581C2.78425 11.1581 2.91117 11.1095 3.00784 11.0128C3.20169 10.819 3.20169 10.5056 3.00784 10.3118C1.15518 8.45962 1.15518 5.44588 3.00784 3.59322Z" fill="#DC7000"/>
<path d="M5.09547 3.88379C4.90163 3.68994 4.58831 3.68994 4.39447 3.88379C3.59381 4.68395 3.15308 5.74984 3.15308 6.88414C3.15308 8.01845 3.59381 9.08434 4.39447 9.88499C4.49114 9.98167 4.61806 10.0303 4.74497 10.0303C4.87189 10.0303 4.9988 9.98167 5.09547 9.88499C5.28932 9.69115 5.28932 9.37783 5.09547 9.18399C4.48222 8.57073 4.1446 7.75371 4.1446 6.88414C4.1446 6.01457 4.48172 5.19805 5.09547 4.58479C5.28882 4.39145 5.28882 4.07763 5.09547 3.88379Z" fill="#DC7000"/>
</g>
<defs>
<clipPath id="clip0_204_181">
<rect width="29.7458" height="29.7458" fill="white" transform="translate(0.627197 0.627075)"/>
</clipPath>
</defs>
</svg>
