<svg width="32" height="32" viewBox="0 0 32 32" fill="none" xmlns="http://www.w3.org/2000/svg">
<g clip-path="url(#clip0_204_242)">
<path d="M18.5671 23.9054C16.8811 24.468 15.0213 24.4679 13.3305 23.9052C12.8567 23.7474 12.3452 24.0037 12.1876 24.4772C12.03 24.9508 12.2861 25.4626 12.7597 25.6202C13.7894 25.9629 14.8703 26.1341 15.9509 26.1341C17.0316 26.1341 18.1119 25.9627 19.1392 25.6199C19.6126 25.462 19.8684 24.9501 19.7103 24.4766C19.5524 24.0032 19.0406 23.7476 18.5671 23.9054Z" fill="#DC7000"/>
<path d="M26.4768 6.53141C26.0921 3.77261 23.7232 1.59509 20.7892 1.59509H19.7568V1.53081C19.7568 1.03171 19.3522 0.627075 18.8531 0.627075H13.0451C12.546 0.627075 12.1414 1.03171 12.1414 1.53081V1.59503H11.1091C8.19966 1.59503 5.82747 3.74219 5.42405 6.53075C3.72997 6.91628 2.46143 8.43365 2.46143 10.2427V17.9868C2.46143 20.4634 4.47874 21.4727 5.39507 21.6905C5.80886 27.2659 10.4904 31.4745 15.9491 31.4745C21.5159 31.4745 26.0925 27.1544 26.5027 21.6908C28.878 21.1268 29.4368 18.9719 29.4368 17.9868V10.2428C29.4369 8.43462 28.1695 6.91785 26.4768 6.53141ZM19.7568 3.4025H20.7891C23.3462 3.4025 24.4025 5.4932 24.6221 6.43507H19.7568V3.4025ZM13.9489 2.43454H17.9494V6.43507H13.9489V2.43454ZM11.1091 3.4025H12.1414V6.43507H7.27984C7.866 3.97957 10.0905 3.4025 11.1091 3.4025ZM15.9491 29.6671C11.4886 29.6671 7.67573 26.2879 7.2188 21.7945H11.6754C12.7844 21.7945 13.8695 21.3451 14.6524 20.5616C14.6571 20.5569 14.6617 20.5522 14.6662 20.5475C15.0062 20.2149 15.4727 20.0246 15.9491 20.0246C16.4257 20.0246 16.8921 20.215 17.2321 20.5475C17.2366 20.5522 17.2412 20.5569 17.2459 20.5616C18.0288 21.3451 19.1139 21.7945 20.2229 21.7945H24.6791C24.2253 26.2108 20.4833 29.6671 15.9491 29.6671ZM27.6294 17.9868C27.6294 19.1053 26.7178 19.987 25.6291 19.987H20.2229C19.5968 19.987 18.9843 19.7364 18.5391 19.2985C18.5342 19.2934 18.5293 19.2883 18.5243 19.2833C17.8467 18.6057 16.9082 18.2171 15.9492 18.2171C14.9903 18.2171 14.0517 18.6057 13.3741 19.2833C13.3691 19.2883 13.3641 19.2933 13.3593 19.2985C12.914 19.7364 12.3015 19.987 11.6754 19.987H6.2691C5.18389 19.987 4.26883 19.1091 4.26883 17.9868V10.2428C4.26883 9.13989 5.16618 8.2426 6.2691 8.2426H25.6291C26.732 8.2426 27.6293 9.13995 27.6293 10.2428V17.9868H27.6294Z" fill="#DC7000"/>
</g>
<defs>
<clipPath id="clip0_204_242">
<rect width="30.8475" height="30.8475" fill="white" transform="translate(0.525391 0.627075)"/>
</clipPath>
</defs>
</svg>
